<svg xmlns="http://www.w3.org/2000/svg" xmlns:xlink="http://www.w3.org/1999/xlink" width="920" height="415" viewBox="0 0 920 415">
  <defs>
    <clipPath id="clip-Featured_image_How_to_design_more_inclusive_digital_products_">
      <rect width="920" height="415"/>
    </clipPath>
  </defs>
  <g id="Featured_image_How_to_design_more_inclusive_digital_products_" data-name="Featured image – How to design more inclusive digital products?" clip-path="url(#clip-Featured_image_How_to_design_more_inclusive_digital_products_)">
    <rect width="920" height="415" fill="#fff"/>
    <g id="UX_DESIGNERS_Obszar_roboczy_1-01" data-name="UX_DESIGNERS_Obszar roboczy 1-01" transform="translate(2.7 -0.11)">
      <rect id="Rectangle_7932" data-name="Rectangle 7932" width="912.35" height="415" transform="translate(1.3 0.11)" fill="#fff"/>
      <rect id="Rectangle_4391_00000153683074545517795030000006944908970461307273_" width="628.84" height="0.42" transform="translate(142.24 370.17)" fill="#1d1d1b"/>
      <g id="Group_26958" data-name="Group 26958">
        <path id="Path_15130" data-name="Path 15130" d="M525.99,38.22V94.95H438.56V38.22h87.48m1-1h-89.5V96h89.5Z" fill="#e5e5e5"/>
        <rect id="Rectangle_7933" data-name="Rectangle 7933" width="13.96" height="13.96" transform="translate(504.02 72.06)" fill="#74e4c8"/>
        <rect id="Rectangle_7934" data-name="Rectangle 7934" width="13.96" height="13.96" transform="translate(479.62 72.06)" fill="#fc636b"/>
        <rect id="Rectangle_7935" data-name="Rectangle 7935" width="49.68" height="2.42" transform="translate(469.77 59.35)" fill="#e5e5e5"/>
        <rect id="Rectangle_7936" data-name="Rectangle 7936" width="49.68" height="2.42" transform="translate(469.77 52.99)" fill="#e5e5e5"/>
        <rect id="Rectangle_7937" data-name="Rectangle 7937" width="49.68" height="2.42" transform="translate(469.77 46.65)" fill="#e5e5e5"/>
        <path id="Path_15131" data-name="Path 15131" d="M530.94,101.12H513.48v-.33h17.13V83.66h.33Z" fill="#1d1d1b"/>
        <path id="Path_15132" data-name="Path 15132" d="M433.13,43.59h-.33V26.13h17.44v.33H433.13Z" fill="#1d1d1b"/>
        <rect id="Rectangle_7938" data-name="Rectangle 7938" width="89.49" height="7.13" transform="translate(437.5 31.58)" fill="#39d8b0"/>
        <rect id="Rectangle_7939" data-name="Rectangle 7939" width="23.43" height="40.88" transform="translate(442.82 46.65)" fill="#e5e5e5"/>
        <path id="Path_15133" data-name="Path 15133" d="M504.28,120.4l3.25,13.17a2.25,2.25,0,0,0,1.05,1.43,2.326,2.326,0,0,1,1.14,1.73l4.89,39.46a6.477,6.477,0,0,0,6.56,5.65c5.84-.05,14.01-.56,14.01-.56l3.74-14.76s-13.35.8-13.44.48c-.94-3.71-6.46-26.56-7.83-32.3a8.6,8.6,0,0,1,.01-3.94l.48-1.99a6.69,6.69,0,0,0,.09-2.6c-.53-3.4-2.02-12.66-3.01-18.59a.8.8,0,0,0-.96-.59.809.809,0,0,0-.6.62l-1.03,8.26Z" fill="#ffdac7"/>
        <path id="Path_15134" data-name="Path 15134" d="M588.49,134.23l-16.4-4.18H552.54s-10.14.58-15.78,5.56a12.563,12.563,0,0,0-3.08,5.03L525,160.54l-4.46-24.94-15.6,2.22,2.52,42.92a21.073,21.073,0,0,0,16.61,18.51l8.88-9.98c1.02,8.14,1.93,15.12,2.02,15.03.22-.22,48.6-3.15,48.6-3.15l-4.9-16.56Z" fill="#b1cde8"/>
        <path id="Path_12918" d="M405.9,356.7h0c.73-.15,1.11-1.4.82-2.79l-14.94-76.25c-.31-1.53-1.24-2.7-2.06-2.51l-5.17,1.2c-.8.2-1.13,1.64-.73,3.15l20.11,75.03C404.3,355.92,405.16,356.88,405.9,356.7Z" fill="#bdbec3"/>
        <path id="Path_12919" d="M317.28,357.74h0c-.73-.15-1.09-1.4-.82-2.79L331.4,278.7c.31-1.53,1.26-2.7,2.06-2.51l5.17,1.2c.8.2,1.15,1.64.73,3.15l-20.09,75.03C318.89,356.96,318.03,358.01,317.28,357.74Z" fill="#bdbec3"/>
        <path id="Path_12920" d="M308.63,345.26h0c-.73-.18-1.09-1.4-.82-2.79l14.94-76.25c.31-1.55,1.26-2.7,2.06-2.51l5.17,1.2c.8.2,1.15,1.64.73,3.15l-20.09,75.03C310.25,344.48,309.38,345.44,308.63,345.26Z" fill="#bdbec3"/>
        <path id="Path_12921" d="M398,284.06c1.06.91,2.08,1.77,2.97,2.57a6.221,6.221,0,0,0,.49-2.59Z" fill="#383d4b"/>
        <path id="Path_12922" d="M308.67,214.93c-2.22,19.53-.18,61.1,19.38,72.24,2.22,1.2,4.28.89,7.74,1.06-2.57-.6-2.68-6.45,1.68-6.47l62.59-.2h3.46c2.22,0-11.57-17.4-11.57-17.4-4.43-26.92,0-66.27-28.82-81.15a36.363,36.363,0,0,0-47.65,12.12A44.224,44.224,0,0,0,308.67,214.93Z" fill="#383d4b"/>
        <path id="Path_12923" d="M329.29,287.61a29.534,29.534,0,0,0,10.55.73l59.42-2a3.706,3.706,0,0,0,3.77-2.22c-.89-.8-1.91-1.66-2.97-2.57l-69.09-.42C326.61,281.16,326.72,287.06,329.29,287.61Z" fill="#222837"/>
        <path id="Path_12924" d="M370.4,368.03l-.24,15.83v4.97l4.12,6.12,13.75-.84v-4.68c-2.42-2.22-8.42-5.32-9.38-8.49l-.42-10.69Z" fill="#fbd2bd"/>
        <path id="Path_12925" d="M373.37,393.88l-3.3-5.05v-4.01c1.42,0,7.16-9.16,10.4-.98,7.6,3.55,8.51,7.45,9.11,9.84.27,1.09-.75,1.82-2.88,1.6l-11.09-.2a3.2,3.2,0,0,1-2.24-1.2Z" fill="#222837"/>
        <path id="Path_12927" d="M431.08,384.13c-2.22-2.04-3.28-11.77-3.28-11.77l3.9-11.97,6.07.58-1.11,9.84c0,3.44,3.88,8.09,6.45,10.35l4.61,4.08C448.62,386.03,430.35,383.19,431.08,384.13Z" fill="#fbd2bd"/>
        <path id="Path_12928" d="M423.41,384.44l4.43-12.08c1.77,1.13,1.06,3.99,4.43,5.79,1.75.93,5.57-3.86,7.63-3.24,4.59,1.4-1.49,2.22,0,2.82a51.971,51.971,0,0,1,13.6,9.33h0a3.166,3.166,0,0,1-3.39,4.96Z" fill="#222837"/>
        <rect id="Rectangle_7102" width="0.55" height="30.8" transform="translate(424.349 381.914) rotate(-73.693)" fill="#fff"/>
        <path id="Path_12929" d="M360.44,282.31l34.94,13.02,32.97,75.76,11.75-.95-17.43-76.58a30.464,30.464,0,0,0-7.85-14.48L386.4,256.91c-.53-6.9-.75-19.13-3.75-25.39l-29.62,19.67Z" fill="#3f77ee"/>
        <path id="Path_12930" d="M365.34,261.72l15.67,26.47a16.32,16.32,0,0,1,2.59,12.53l-.98,77.6-14.48,1.15-8.07-72.12s-25.43-29.18-25.63-39.91a100.114,100.114,0,0,1,3.86-24.97l29.07,7.63Z" fill="#588af5"/>
        <path id="Path_12931" d="M340.98,265.77c4.3,10.89,12.28,20.09,21,27.69,1.02.89,2.06,1.77,3.13,2.62s1.95,1.33,2.37,2.33a3.264,3.264,0,0,1,.13.82c.2,1.57.27,3.17.38,4.77.95,15.03,1.64,30.09,2.44,45.14.47,8.74.95,17.47,1.53,26.21a.28.28,0,0,1-.28.28.273.273,0,0,1-.28-.28c-1.09-16.18-1.86-32.39-2.7-48.6-.38-6.92-.73-13.86-1.15-20.77,0-1.93-.22-3.88-.4-5.81a6.591,6.591,0,0,0-.13-1.33c-.4-1.33-2.57-2.57-3.68-3.5-9.53-7.94-18.27-17.74-22.88-29.4C340.31,265.6,340.84,265.44,340.98,265.77Z" fill="#fff"/>
        <path id="Path_12932" d="M376.12,210.43c12.84-3.3,9.73-35.25,9.73-35.25l-6.01-2.22a54.606,54.606,0,0,0-4.43-4.7,2.041,2.041,0,0,1-.69-1.04c-.15-.84-.27-1.71-.36-2.59-6.23,2.68-15.52-2.4-16.76-3.41a11.984,11.984,0,0,0,.24,1.8,11.817,11.817,0,0,1-1.68,7.87,11.165,11.165,0,0,1-4.28,4.1h0C350.38,177.37,361.35,214.2,376.12,210.43Z" fill="#fbd2bd"/>
        <path id="Path_12933" d="M339.65,232.36l-5.7,22.86,53.79,2.04,3.92-28.89L375.1,239.83Z" fill="#e5e5e5"/>
        <rect id="Rectangle_7103" width="1.11" height="49.22" transform="matrix(0.997, -0.078, 0.078, 0.997, 365.691, 178.654)" fill="#fff"/>
        <path id="Path_12934" d="M380.56,171.17h0a13.871,13.871,0,0,1-4.43-2.22l-2.22,5.03a7.681,7.681,0,0,1-9.99,4.24,7.583,7.583,0,0,1-3.49-2.84l-3.77-5.83a11.621,11.621,0,0,1-4.63,3.7h0c-1.06,1.38-11.51,37.49-3.77,56.96,4.63,11.68,25.83,11.55,31.44,10.64l11.09-.95,3.13-17.74,1.66-16.83,8.71,6.65,2.53-26.92C406.81,185.07,384.57,172.03,380.56,171.17Z" fill="#1f2021"/>
        <path id="Path_12935" d="M350.36,214.58c-3.75.35-17.96,1.73-21.46,2.22-.53-12.55.24-24.39,6.01-33.26,3.19-4.79,13.3-8.87,17.12-10.22C353.64,181.61,351.73,201.43,350.36,214.58Z" fill="#1f2021"/>
        <path id="Path_12936" d="M404.03,237.33c-.22,1.2.18,2.95-.66,4.01-1.68,2.22-5.54,3.24-11.09,4.88l-49.8-3.15a14.668,14.668,0,0,1-12.79-13.3c-.31-4.43-.7-9.46-.88-13.72,3.5-.38,17.79-1.03,21.52-1.49-.84,7.43-1.6,12.73-1.6,12.73l41.9,11c3.73-2.68,4.99-7.01,5.74-6.65,1.13.6.8,3.3.73,4.43s2.22-1.51,2.44-1.71C405.43,228.59,404.1,236.82,404.03,237.33Z" fill="#fbd2bd"/>
        <path id="Path_12937" d="M352.49,205.53l-1.66,8.87c0,.35-.6.22-.53-.13l1.66-8.87c0-.35.6-.2.53.15Z" fill="#fff"/>
        <path id="Path_12938" d="M264.57,383.28h0c-.73-.15-1.09-1.4-.82-2.79L277.36,251.1c.31-1.55,1.26-2.7,2.06-2.53l5.17,1.2c.8.2,1.13,1.64.73,3.17L266.56,381.11C266.19,382.51,265.26,383.46,264.57,383.28Z" fill="#222837"/>
        <path id="Path_12939" d="M470.33,383.28h0c.73-.15,1.09-1.4.82-2.79L457.53,251.1c-.29-1.55-1.24-2.7-2.06-2.53l-5.14,1.2c-.82.2-1.15,1.64-.75,3.17l18.78,128.17C468.7,382.51,469.59,383.46,470.33,383.28Z" fill="#222837"/>
        <path id="Rectangle_7104" d="M269.88,240.59H477.17a2.3,2.3,0,0,1,2.31,2.31v5.6a2.3,2.3,0,0,1-2.31,2.31H269.88a2.3,2.3,0,0,1-2.31-2.31v-5.6A2.3,2.3,0,0,1,269.88,240.59Z" fill="#f6f8fa"/>
        <circle id="Ellipse_1128" cx="0.78" cy="0.78" r="0.78" transform="translate(376.87 146.88)" fill="#1d1e1c"/>
        <path id="Path_12941" d="M357.94,164.71a20.674,20.674,0,0,0,4.43,2.64,16.569,16.569,0,0,0,12.35.8,65.343,65.343,0,0,0-.95-8.71c-1.22-2.22-17.74-9.67-17.4-6.52C356.59,154.87,357.32,159.81,357.94,164.71Z" fill="#e2a191"/>
        <path id="Path_12942" d="M352.26,144.94s5.57,15.76,5.99,16.23a19.977,19.977,0,0,0,9.71,5.06c5.01.98,6.96.38,9.69-3.15,3.99-5.12,5.12-8.6,3.73-15.7-.29-1.42-.64-11.37-1.09-12.99-1.15-4.08-8.2-2.11-8.87-3.99C370.58,127.42,352.26,144.94,352.26,144.94Z" fill="#fbd2bd"/>
        <circle id="Ellipse_1129" cx="0.78" cy="0.78" r="0.78" transform="translate(367.93 148.06)" fill="#1d1e1c"/>
        <circle id="Ellipse_1130" cx="0.78" cy="0.78" r="0.78" transform="translate(376.96 148.06)" fill="#1d1e1c"/>
        <path id="Path_12943" d="M373.33,146.25a17.774,17.774,0,0,0,1.57,6.16,3.934,3.934,0,0,1,.24,2.66,2.22,2.22,0,0,1-2.22,1.04c-.71,0-.71-1.15,0-1.11a2.867,2.867,0,0,0,1.09-.13c.27-.13.24-.58.22-.86a12.353,12.353,0,0,0-.78-2.53,13.89,13.89,0,0,1-1.18-5.23.548.548,0,0,1,.55-.55.555.555,0,0,1,.55.55Z" fill="#e2a191"/>
        <path id="Path_12944" d="M353.95,137.89c.36-.42,24.03-5.05,24.39-4.97,1.64.4,1.62.75,1.84,1.49.73,2.57.29,2.82.29,2.82-14.23.4-13.3,3.3-14.5,5.21-3.5,5.74-10.24,2.22-10.49,1.77a32.724,32.724,0,0,1-1.53-6.32Z" fill="#e2a191"/>
        <path id="Path_12945" d="M349.34,134.5a9.761,9.761,0,0,0-.49,9.64c.15.31-.31.6-.47.27a10.321,10.321,0,0,1,.49-10.2C349.05,133.92,349.54,134.21,349.34,134.5Z" fill="#fff"/>
        <path id="Path_12946" d="M384.99,132.17a5.4,5.4,0,0,0,.78-5.28,1.129,1.129,0,0,0-1.44-.6l-2.22.6a9.375,9.375,0,0,0-1.71.6,1.191,1.191,0,0,0-1.35-.47c-1.91.69-3.77-1.22-5.34-2.04a5.626,5.626,0,0,0-3.19-.67,12,12,0,0,0-3.1-1.02,13.006,13.006,0,0,0-11.91,4.12.923.923,0,0,0-.22.78,20.6,20.6,0,0,0-2.79,2.22c0,.78-1.73,2.06-2.22,2.84a11.5,11.5,0,0,0-.93,2.68,6.727,6.727,0,0,1-.18.87c-2.22,14.21,4.05,16.05,8.07,22.17l-1.2-3.77c-.24-6.65-.44-6.07-.51-10.91,3.06.33,4.21,1,7.1-.15s2.93-2.88,3.86-5.39a1.987,1.987,0,0,1,1.73-1.33c3.88-.2,9.98-1.68,12.3,0,.49.35,1.22-.6,1.53-.93a7.388,7.388,0,0,0,2.94-4.32Z" fill="#7b5d4d"/>
        <path id="Path_12947" d="M356.17,138.33c4.61.91,8.58-2.22,11.93-4.9.27-.22.66.18.38.4-3.5,2.86-7.63,5.99-12.44,5.03-.36,0-.21-.6.13-.53Z" fill="#fff"/>
        <ellipse id="Ellipse_1131" cx="3.37" cy="5.05" rx="3.37" ry="5.05" transform="translate(348.595 147.56) rotate(-26.27)" fill="#fbd2bd"/>
        <rect id="Rectangle_7106" width="0.55" height="14.59" transform="translate(372.959 392.499) rotate(-89.1)" fill="#fff"/>
        <path id="Path_12949" d="M426.09,240.59h24.63l-2.86-14.68H430.6Z" fill="#383d4b"/>
        <path id="Rectangle_7107" d="M390.88,163.87h95.09a1.831,1.831,0,0,1,1.83,1.83v63.41a1.831,1.831,0,0,1-1.83,1.83H390.88a1.831,1.831,0,0,1-1.83-1.83V165.7A1.824,1.824,0,0,1,390.88,163.87Z" fill="#383d4b"/>
        <circle id="Ellipse_1132" cx="7.56" cy="7.56" r="7.56" transform="translate(430.84 189.84)" fill="#fff"/>
        <rect id="Rectangle_7108" width="20.69" height="20.69" transform="translate(458.24 150.95)" fill="#fc636b"/>
        <path id="Path_11731" d="M570.83,86.05h0a24.65,24.65,0,0,1,8.16,17.65l4.3,33.82-41.84,4.21,4.12-18.02V94.44Z" fill="#3f342d"/>
        <path id="Path_11732" d="M543.34,368.99v20.67l-4.96,6.11-12.9-1.19.15-4.65c2.45-2.21,8.47-5.14,9.49-8.27l.61-10.63Z" fill="#ffdac7"/>
        <path id="Path_11733" d="M606.06,392.59c-2.78-1.23-6.62-10.19-6.62-10.19l-2.93-16.08,8.43-4.63,2.47,16.61c.99,3.26,6.07,6.62,9.18,7.94l5.6,2.52C623.26,389.24,605.09,391.87,606.06,392.59Z" fill="#ffdac7"/>
        <path id="Path_11734" d="M601.03,395.17l-.71-8.18-.86-4.59c2.01.55,4.26,6,7.96,6.62,1.94.38,4.96-4.06,7.06-3.64a124.524,124.524,0,0,1,13.72,3.31h0a3.135,3.135,0,0,1-1.74,5.72Z" fill="#3f77ee"/>
        <path id="Path_11735" d="M539.15,394.76l4.12-5.07V385.7c-1.39,0-5.69,5.07-6.62,4.41-6.11-3.86-7.99-1.54-11.03-.18-1.65,1.1-2.21,2.21-1.74,3.48a4.4,4.4,0,0,0,4.68,3.22l8.47-.73a3.2,3.2,0,0,0,2.12-1.14Z" fill="#3f77ee"/>
        <path id="Path_11736" d="M568.25,115.86s-2.58,6.22-3.97,7.06a14.965,14.965,0,0,1-11.03,2.21,59.809,59.809,0,0,1-.15-7.92c.84-2.07,16.41-11.03,16.39-8.16C569.53,110.74,568.22,111.38,568.25,115.86Z" fill="#d7aa79"/>
        <path id="Path_11737" d="M556.82,158.86a81.911,81.911,0,0,1-3.49-8.87,87.686,87.686,0,0,0-6.45-14.74l3.87-2.61a15.411,15.411,0,0,0,2.62-5.23v-2.36c5.91,1.68,13.92-8.14,14.96-9.2,0,5.21-.18,14.51.33,15.24l6.11,1.68C569.79,134.09,556.82,158.86,556.82,158.86Z" fill="#ffdac7"/>
        <path id="Path_11738" d="M574.38,100.46s-5.71,17.4-16.1,21.55a6.941,6.941,0,0,1-9.35-2.43c-3.35-4.41-3.9-7.12-4.68-13.81,0-.9-.13-5.43-.2-8.65v-3.2c.38-1.94,2.21-2.56,4.15-2.91s3.22-.55,3.4-1.37C552.25,86.94,574.38,100.46,574.38,100.46Z" fill="#ffdac7"/>
        <path id="Path_11740" d="M559.89,244.77,545.15,372.72H531.91V235.95a63.543,63.543,0,0,1,4.19-22.61l8.18-14.71Z" fill="#222837"/>
        <path id="Path_11741" d="M595.27,234.95a63.67,63.67,0,0,0-6.62-23.45l-7.02-14.65H557.36a48.285,48.285,0,0,0-14.05,1.76l15.44,46.15,38.87,126.27,4.9-2.67,3.55-1.96Z" fill="#222837"/>
        <path id="Path_11742" d="M551.3,105.51a8.861,8.861,0,0,1-1.5,4.94c-.18.33-.4.68-.18,1.04a1.51,1.51,0,0,0,.75.51,3.37,3.37,0,0,0,1.68.35.555.555,0,0,0,.55-.55h0c0-.26-.24-.6-.55-.55a2.631,2.631,0,0,1-1.32-.29h-.22v.18c.18-.38.38-.75.57-1.12a10.906,10.906,0,0,0,.9-2.21,5.923,5.923,0,0,0,.15-2.51.552.552,0,0,0-1.06.29Z" fill="#d7aa79"/>
        <path id="Path_11743" d="M570.21,103.55c-.49.09-.97.15-1.46.2a20.689,20.689,0,0,1-11.03-1.24,30.037,30.037,0,0,1-10.83-8.25c-.22.24-2.21,2.05-2.85,2.05h0a10.227,10.227,0,0,1,0-2.07v-.35a9.66,9.66,0,0,1,1.26-3.31h.11a2.2,2.2,0,0,1,2.78.49.682.682,0,0,1,.22.31c1.65,3.49,5.18,5.03,8.67,6.2a23.556,23.556,0,0,0,11.87,1.76C571.82,98.76,573.01,103.02,570.21,103.55Z" fill="#d7aa79"/>
        <path id="Path_11745" d="M540.94,229.2a11.512,11.512,0,0,1-1.5,4.74,14.862,14.862,0,0,1-4.63,4.9,22.977,22.977,0,0,1-5.25,2.67c-.51.2-.73-.6-.22-.79a21.777,21.777,0,0,0,5.1-2.62,13.307,13.307,0,0,0,4.71-5.35,10.451,10.451,0,0,0,.95-3.55C540.14,228.62,540.98,228.62,540.94,229.2Z" fill="#fff"/>
        <path id="Path_11747" d="M531.45,170.26a42.287,42.287,0,0,0,14.47,24.26c.27.22.66-.18.38-.4a41.954,41.954,0,0,1-14.32-24.06c0-.35-.6-.2-.53.13Z" fill="#1d1d1b"/>
        <path id="Path_11750" d="M556.2,206.81c-.64,3.44-1.15,6.93-1.5,10.41a30.469,30.469,0,0,0-.33,5.05,2.21,2.21,0,0,0,1.77,2.34c.33,0,.48-.46.13-.53-1.79-.33-1.35-2.67-1.26-3.97s.24-2.85.4-4.26c.33-2.98.77-5.96,1.32-8.82,0-.33-.46-.49-.53-.13Z" fill="#fff"/>
        <path id="Path_11751" d="M556.05,225.11c.86,5.69,1.61,11.38,2.21,17.12,0,.33.57.35.55,0q-.99-8.67-2.21-17.27c0-.35-.6-.2-.53.15Z" fill="#fff"/>
        <path id="Path_11752" d="M560.53,206.32a41.92,41.92,0,0,0-2.07,8.56c-.53,3.53-1.17,7.04-1.79,10.57,0,.33.48.49.55.13.62-3.51,1.23-7.04,1.77-10.57a42.4,42.4,0,0,1,2.07-8.45c.13-.33-.42-.49-.53-.15Z" fill="#fff"/>
        <path id="Path_11753" d="M576.19,213.47a25.3,25.3,0,0,0,3.79,12.77c2.07,3.57,5.69,4.99,9.44,6.18.33,0,.48-.42.13-.53-3.73-1.19-7.26-2.58-9.26-6.18a24.935,24.935,0,0,1-3.53-12.24.294.294,0,0,0-.36-.2.307.307,0,0,0-.2.2Z" fill="#fff"/>
        <path id="Path_11754" d="M540.87,203.21a58.056,58.056,0,0,0,12.64,3.35,36.184,36.184,0,0,0,11.23-.44c6.42-1.19,12.84-2.6,19.17-4.24a.289.289,0,0,0,.17-.37.285.285,0,0,0-.32-.18c-6.11,1.59-12.31,2.96-18.51,4.12a37.607,37.607,0,0,1-11.25.62,56.9,56.9,0,0,1-12.97-3.29c-.33-.13-.48.42-.15.53Z" fill="#fff"/>
        <path id="Path_11755" d="M576.85,126.33a.267.267,0,0,1-.27-.26V108.71a.275.275,0,1,1,.55-.03v17.39a.267.267,0,0,1-.26.27c-.01,0-.01,0-.02-.01Z" fill="#fff"/>
        <path id="Path_11756" d="M576.19,95.94c.18,7.85-6.2,13.24-5.89,9.75,0-.42-1.46-2.82-1.39-3.29a76.51,76.51,0,0,1-10.02-.84c-4.41-.77-10.65-5.69-11.65-9.04-1.81,2.05-2.98,3.57-3.22,3.79h0a10.227,10.227,0,0,1,0-2.07v-.35a9.66,9.66,0,0,1,1.26-3.31c3.29-5.58,11.59-8.51,17.65-7.87a15.43,15.43,0,0,1,10.85,6.44c0,.79,1.43,2.21,1.72,3.11a11.294,11.294,0,0,1,.57,2.76A3.46,3.46,0,0,1,576.19,95.94Z" fill="#3f342d"/>
        <path id="Path_11757" d="M572.33,105.69c0,2.21-1.41,6.11-3.11,6.11s-2.98-3.93-2.98-6.11a3.151,3.151,0,0,1,6.08-1.66A3.022,3.022,0,0,1,572.33,105.69Z" fill="#ffdac7"/>
        <path id="Path_11758" d="M558.43,94.57a6.278,6.278,0,0,0,5.4,2.67c.35,0,.35-.57,0-.55a5.785,5.785,0,0,1-4.94-2.38C558.69,94.02,558.21,94.3,558.43,94.57Z" fill="#fff"/>
        <path id="Path_11759" d="M549.54,105.79a1.344,1.344,0,0,1,0,.49,2.625,2.625,0,0,0-1.12-.86,8.135,8.135,0,0,0-1.9-.4.831.831,0,0,1,.29-.66s.33.42.44.38a1.736,1.736,0,0,1,2.26.97A.668.668,0,0,1,549.54,105.79Z" fill="#1d1e1c"/>
        <path id="Path_11760" d="M556.05,107.3a3.689,3.689,0,0,0-.29.4,2.712,2.712,0,0,1,1.41-.13,8.974,8.974,0,0,1,1.81.68.805.805,0,0,0,0-.71s-.51.18-.57,0a1.793,1.793,0,0,0-2.36-.24Z" fill="#1d1e1c"/>
        <g id="Group_26665" transform="translate(51.012 46.547)">
          <path id="Path_13789" d="M506.35,114.66l-5.61-19.74h-2.45l6.14,19.74v37.27h1.92V114.66Z" fill="#b1cde8" stroke="#fff" stroke-width="1"/>
          <path id="Path_13790" d="M518.78,92.65h-4.4l-9.09,17.47.97,4.11Z" fill="#b1cde8" stroke="#fff" stroke-width="1"/>
          <path id="Path_13791" d="M506.35,151.61V113.72" fill="none" stroke="#fff" stroke-width="1"/>
          <path id="Path_13792" d="M514.27,92.49h5.46l7.8,9.57-3.58-17.62-5.65-1.82Z" fill="#bdcad9" stroke="#fff" stroke-width="1"/>
          <path id="Path_13793" d="M501.1,94.93V83.26l-5.64,3.03-4.81,16.85,7.44-8.22h3.01Z" fill="#bdcad9" stroke="#fff" stroke-width="1"/>
        </g>
        <g id="Group_26858" data-name="Group 26858">
          <g id="Group_26857" data-name="Group 26857">
            <g id="Group_26808" data-name="Group 26808">
              <path id="Path_15135" data-name="Path 15135" d="M446.59,115.09c0-.12.56-.22,1.24-.22s1.24.1,1.24.22-.56.22-1.24.22S446.59,115.21,446.59,115.09Z" fill="#e1e1e1"/>
            </g>
            <g id="Group_26809" data-name="Group 26809">
              <path id="Path_15136" data-name="Path 15136" d="M441.62,115.09c0-.12.56-.22,1.24-.22s1.24.1,1.24.22-.56.22-1.24.22S441.62,115.21,441.62,115.09Z" fill="#e1e1e1"/>
            </g>
            <g id="Group_26810" data-name="Group 26810">
              <path id="Path_15137" data-name="Path 15137" d="M436.65,115.09c0-.12.56-.22,1.24-.22s1.24.1,1.24.22-.56.22-1.24.22S436.65,115.21,436.65,115.09Z" fill="#e1e1e1"/>
            </g>
            <g id="Group_26811" data-name="Group 26811">
              <path id="Path_15138" data-name="Path 15138" d="M431.67,115.09c0-.12.56-.22,1.24-.22s1.24.1,1.24.22-.56.22-1.24.22S431.67,115.21,431.67,115.09Z" fill="#e1e1e1"/>
            </g>
            <g id="Group_26812" data-name="Group 26812">
              <path id="Path_15139" data-name="Path 15139" d="M426.7,115.09c0-.12.56-.22,1.24-.22s1.24.1,1.24.22-.56.22-1.24.22S426.7,115.21,426.7,115.09Z" fill="#e1e1e1"/>
            </g>
            <g id="Group_26813" data-name="Group 26813">
              <path id="Path_15140" data-name="Path 15140" d="M421.73,115.09c0-.12.56-.22,1.24-.22s1.24.1,1.24.22-.56.22-1.24.22S421.73,115.21,421.73,115.09Z" fill="#e1e1e1"/>
            </g>
            <g id="Group_26814" data-name="Group 26814">
              <path id="Path_15141" data-name="Path 15141" d="M416.76,115.09c0-.12.56-.22,1.24-.22s1.24.1,1.24.22-.56.22-1.24.22S416.76,115.21,416.76,115.09Z" fill="#e1e1e1"/>
            </g>
            <g id="Group_26815" data-name="Group 26815">
              <path id="Path_15142" data-name="Path 15142" d="M411.78,115.09c0-.12.56-.22,1.24-.22s1.24.1,1.24.22-.56.22-1.24.22S411.78,115.21,411.78,115.09Z" fill="#e1e1e1"/>
            </g>
            <g id="Group_26816" data-name="Group 26816">
              <path id="Path_15143" data-name="Path 15143" d="M406.81,115.09c0-.12.56-.22,1.24-.22s1.24.1,1.24.22-.56.22-1.24.22S406.81,115.21,406.81,115.09Z" fill="#e1e1e1"/>
            </g>
            <g id="Group_26817" data-name="Group 26817">
              <path id="Path_15144" data-name="Path 15144" d="M401.84,115.09c0-.12.56-.22,1.24-.22s1.24.1,1.24.22-.56.22-1.24.22S401.84,115.21,401.84,115.09Z" fill="#e1e1e1"/>
            </g>
            <g id="Group_26818" data-name="Group 26818">
              <path id="Path_15145" data-name="Path 15145" d="M396.86,115.09c0-.12.56-.22,1.24-.22s1.24.1,1.24.22-.56.22-1.24.22S396.86,115.21,396.86,115.09Z" fill="#e1e1e1"/>
            </g>
            <g id="Group_26819" data-name="Group 26819">
              <path id="Path_15146" data-name="Path 15146" d="M391.89,115.09c0-.12.56-.22,1.24-.22s1.24.1,1.24.22-.56.22-1.24.22S391.89,115.21,391.89,115.09Z" fill="#e1e1e1"/>
            </g>
            <g id="Group_26820" data-name="Group 26820">
              <path id="Path_15147" data-name="Path 15147" d="M388.35,113.67c.12,0,.22.56.22,1.24v.19l-.21-.21c.6.02,1.06.11,1.06.21s-.46.2-1.06.21l-.21.01v-.41C388.13,114.22,388.23,113.67,388.35,113.67Z" fill="#e1e1e1"/>
            </g>
            <g id="Group_26821" data-name="Group 26821">
              <path id="Path_15148" data-name="Path 15148" d="M388.35,108.69c.12,0,.22.56.22,1.24s-.1,1.24-.22,1.24-.22-.56-.22-1.24S388.23,108.69,388.35,108.69Z" fill="#e1e1e1"/>
            </g>
            <g id="Group_26822" data-name="Group 26822">
              <path id="Path_15149" data-name="Path 15149" d="M388.35,103.72c.12,0,.22.56.22,1.24s-.1,1.24-.22,1.24-.22-.56-.22-1.24S388.23,103.72,388.35,103.72Z" fill="#e1e1e1"/>
            </g>
            <g id="Group_26823" data-name="Group 26823">
              <path id="Path_15150" data-name="Path 15150" d="M388.35,98.75c.12,0,.22.56.22,1.24s-.1,1.24-.22,1.24-.22-.56-.22-1.24S388.23,98.75,388.35,98.75Z" fill="#e1e1e1"/>
            </g>
            <g id="Group_26824" data-name="Group 26824">
              <path id="Path_15151" data-name="Path 15151" d="M388.35,93.77c.12,0,.22.56.22,1.24s-.1,1.24-.22,1.24-.22-.56-.22-1.24S388.23,93.77,388.35,93.77Z" fill="#e1e1e1"/>
            </g>
            <g id="Group_26825" data-name="Group 26825">
              <path id="Path_15152" data-name="Path 15152" d="M388.35,88.8c.12,0,.22.56.22,1.24s-.1,1.24-.22,1.24-.22-.56-.22-1.24S388.23,88.8,388.35,88.8Z" fill="#e1e1e1"/>
            </g>
            <g id="Group_26826" data-name="Group 26826">
              <path id="Path_15153" data-name="Path 15153" d="M388.35,83.83c.12,0,.22.56.22,1.24s-.1,1.24-.22,1.24-.22-.56-.22-1.24S388.23,83.83,388.35,83.83Z" fill="#e1e1e1"/>
            </g>
            <g id="Group_26827" data-name="Group 26827">
              <path id="Path_15154" data-name="Path 15154" d="M388.35,78.86c.12,0,.22.56.22,1.24s-.1,1.24-.22,1.24-.22-.56-.22-1.24S388.23,78.86,388.35,78.86Z" fill="#e1e1e1"/>
            </g>
            <g id="Group_26828" data-name="Group 26828">
              <path id="Path_15155" data-name="Path 15155" d="M388.35,73.88c.12,0,.22.56.22,1.24s-.1,1.24-.22,1.24-.22-.56-.22-1.24S388.23,73.88,388.35,73.88Z" fill="#e1e1e1"/>
            </g>
            <g id="Group_26829" data-name="Group 26829">
              <path id="Path_15156" data-name="Path 15156" d="M388.35,68.91c.12,0,.22.56.22,1.24s-.1,1.24-.22,1.24-.22-.56-.22-1.24S388.23,68.91,388.35,68.91Z" fill="#e1e1e1"/>
            </g>
            <g id="Group_26830" data-name="Group 26830">
              <path id="Path_15157" data-name="Path 15157" d="M388.35,63.94c.12,0,.22.56.22,1.24s-.1,1.24-.22,1.24-.22-.56-.22-1.24S388.23,63.94,388.35,63.94Z" fill="#e1e1e1"/>
            </g>
            <g id="Group_26831" data-name="Group 26831">
              <path id="Path_15158" data-name="Path 15158" d="M388.35,58.97c.12,0,.22.56.22,1.24s-.1,1.24-.22,1.24-.22-.56-.22-1.24S388.23,58.97,388.35,58.97Z" fill="#e1e1e1"/>
            </g>
            <g id="Group_26832" data-name="Group 26832">
              <path id="Path_15159" data-name="Path 15159" d="M388.72,54.37c0,.06-.14.11-.37.15l.15-.15a5.219,5.219,0,0,1,.06.87c0,.69-.1,1.24-.22,1.24s-.22-.56-.22-1.24a5.219,5.219,0,0,1,.06-.87l.03-.18.12.02C388.58,54.25,388.72,54.31,388.72,54.37Z" fill="#e1e1e1"/>
            </g>
            <g id="Group_26833" data-name="Group 26833">
              <path id="Path_15160" data-name="Path 15160" d="M393.69,54.37c0,.12-.56.22-1.24.22s-1.24-.1-1.24-.22.56-.22,1.24-.22S393.69,54.25,393.69,54.37Z" fill="#e1e1e1"/>
            </g>
            <g id="Group_26834" data-name="Group 26834">
              <path id="Path_15161" data-name="Path 15161" d="M398.67,54.37c0,.12-.56.22-1.24.22s-1.24-.1-1.24-.22.56-.22,1.24-.22S398.67,54.25,398.67,54.37Z" fill="#e1e1e1"/>
            </g>
            <g id="Group_26835" data-name="Group 26835">
              <path id="Path_15162" data-name="Path 15162" d="M403.64,54.37c0,.12-.56.22-1.24.22s-1.24-.1-1.24-.22.56-.22,1.24-.22S403.64,54.25,403.64,54.37Z" fill="#e1e1e1"/>
            </g>
            <g id="Group_26836" data-name="Group 26836">
              <path id="Path_15163" data-name="Path 15163" d="M408.61,54.37c0,.12-.56.22-1.24.22s-1.24-.1-1.24-.22.56-.22,1.24-.22S408.61,54.25,408.61,54.37Z" fill="#e1e1e1"/>
            </g>
            <g id="Group_26837" data-name="Group 26837">
              <path id="Path_15164" data-name="Path 15164" d="M413.58,54.37c0,.12-.56.22-1.24.22s-1.24-.1-1.24-.22.56-.22,1.24-.22S413.58,54.25,413.58,54.37Z" fill="#e1e1e1"/>
            </g>
            <g id="Group_26838" data-name="Group 26838">
              <ellipse id="Ellipse_1114" data-name="Ellipse 1114" cx="1.24" cy="0.22" rx="1.24" ry="0.22" transform="translate(416.07 54.15)" fill="#e1e1e1"/>
            </g>
            <g id="Group_26839" data-name="Group 26839">
              <path id="Path_15165" data-name="Path 15165" d="M423.53,54.37c0,.12-.56.22-1.24.22s-1.24-.1-1.24-.22.56-.22,1.24-.22S423.53,54.25,423.53,54.37Z" fill="#e1e1e1"/>
            </g>
            <g id="Group_26840" data-name="Group 26840">
              <path id="Path_15166" data-name="Path 15166" d="M428.5,54.37c0,.12-.56.22-1.24.22s-1.24-.1-1.24-.22.56-.22,1.24-.22S428.5,54.25,428.5,54.37Z" fill="#e1e1e1"/>
            </g>
            <g id="Group_26841" data-name="Group 26841">
              <path id="Path_15167" data-name="Path 15167" d="M433.48,54.37c0,.12-.56.22-1.24.22s-1.24-.1-1.24-.22.56-.22,1.24-.22S433.48,54.25,433.48,54.37Z" fill="#e1e1e1"/>
            </g>
            <g id="Group_26842" data-name="Group 26842">
              <path id="Path_15168" data-name="Path 15168" d="M438.45,54.37c0,.12-.56.22-1.24.22s-1.24-.1-1.24-.22.56-.22,1.24-.22S438.45,54.25,438.45,54.37Z" fill="#e1e1e1"/>
            </g>
            <g id="Group_26843" data-name="Group 26843">
              <path id="Path_15169" data-name="Path 15169" d="M443.42,54.37c0,.12-.56.22-1.24.22s-1.24-.1-1.24-.22.56-.22,1.24-.22S443.42,54.25,443.42,54.37Z" fill="#e1e1e1"/>
            </g>
            <g id="Group_26844" data-name="Group 26844">
              <path id="Path_15170" data-name="Path 15170" d="M448.39,54.37c0,.12-.56.22-1.24.22s-1.24-.1-1.24-.22.56-.22,1.24-.22S448.39,54.25,448.39,54.37Z" fill="#e1e1e1"/>
            </g>
            <g id="Group_26845" data-name="Group 26845">
              <path id="Path_15171" data-name="Path 15171" d="M449.08,58.65c-.12,0-.22-.56-.22-1.24s.1-1.24.22-1.24.22.56.22,1.24S449.2,58.65,449.08,58.65Z" fill="#e1e1e1"/>
            </g>
            <g id="Group_26846" data-name="Group 26846">
              <path id="Path_15172" data-name="Path 15172" d="M449.08,63.63c-.12,0-.22-.56-.22-1.24s.1-1.24.22-1.24.22.56.22,1.24S449.2,63.63,449.08,63.63Z" fill="#e1e1e1"/>
            </g>
            <g id="Group_26847" data-name="Group 26847">
              <path id="Path_15173" data-name="Path 15173" d="M449.08,68.6c-.12,0-.22-.56-.22-1.24s.1-1.24.22-1.24.22.56.22,1.24S449.2,68.6,449.08,68.6Z" fill="#e1e1e1"/>
            </g>
            <g id="Group_26848" data-name="Group 26848">
              <path id="Path_15174" data-name="Path 15174" d="M449.08,73.57c-.12,0-.22-.56-.22-1.24s.1-1.24.22-1.24.22.56.22,1.24S449.2,73.57,449.08,73.57Z" fill="#e1e1e1"/>
            </g>
            <g id="Group_26849" data-name="Group 26849">
              <path id="Path_15175" data-name="Path 15175" d="M449.08,78.54c-.12,0-.22-.56-.22-1.24s.1-1.24.22-1.24.22.56.22,1.24S449.2,78.54,449.08,78.54Z" fill="#e1e1e1"/>
            </g>
            <g id="Group_26850" data-name="Group 26850">
              <path id="Path_15176" data-name="Path 15176" d="M449.08,83.52c-.12,0-.22-.56-.22-1.24s.1-1.24.22-1.24.22.56.22,1.24S449.2,83.52,449.08,83.52Z" fill="#e1e1e1"/>
            </g>
            <g id="Group_26851" data-name="Group 26851">
              <path id="Path_15177" data-name="Path 15177" d="M449.08,88.49c-.12,0-.22-.56-.22-1.24s.1-1.24.22-1.24.22.56.22,1.24S449.2,88.49,449.08,88.49Z" fill="#e1e1e1"/>
            </g>
            <g id="Group_26852" data-name="Group 26852">
              <path id="Path_15178" data-name="Path 15178" d="M449.08,93.46c-.12,0-.22-.56-.22-1.24s.1-1.24.22-1.24.22.56.22,1.24S449.2,93.46,449.08,93.46Z" fill="#e1e1e1"/>
            </g>
            <g id="Group_26853" data-name="Group 26853">
              <path id="Path_15179" data-name="Path 15179" d="M449.08,98.44c-.12,0-.22-.56-.22-1.24s.1-1.24.22-1.24.22.56.22,1.24S449.2,98.44,449.08,98.44Z" fill="#e1e1e1"/>
            </g>
            <g id="Group_26854" data-name="Group 26854">
              <path id="Path_15180" data-name="Path 15180" d="M449.08,103.41c-.12,0-.22-.56-.22-1.24s.1-1.24.22-1.24.22.56.22,1.24S449.2,103.41,449.08,103.41Z" fill="#e1e1e1"/>
            </g>
            <g id="Group_26855" data-name="Group 26855">
              <path id="Path_15181" data-name="Path 15181" d="M449.08,108.38c-.12,0-.22-.56-.22-1.24s.1-1.24.22-1.24.22.56.22,1.24S449.2,108.38,449.08,108.38Z" fill="#e1e1e1"/>
            </g>
            <g id="Group_26856" data-name="Group 26856">
              <path id="Path_15182" data-name="Path 15182" d="M449.08,113.35c-.12,0-.22-.56-.22-1.24s.1-1.24.22-1.24.22.56.22,1.24S449.2,113.35,449.08,113.35Z" fill="#e1e1e1"/>
            </g>
          </g>
          <rect id="Rectangle_7940" data-name="Rectangle 7940" width="4.5" height="4.5" transform="translate(446.83 112.23)" fill="#e1e1e1"/>
          <rect id="Rectangle_7941" data-name="Rectangle 7941" width="4.5" height="4.5" transform="translate(386.1 112.85)" fill="#e1e1e1"/>
          <rect id="Rectangle_7942" data-name="Rectangle 7942" width="4.5" height="4.5" transform="translate(446.83 51.68)" fill="#e1e1e1"/>
          <rect id="Rectangle_7943" data-name="Rectangle 7943" width="4.5" height="4.5" transform="translate(386.1 52.12)" fill="#e1e1e1"/>
        </g>
        <g id="Group_26931" data-name="Group 26931">
          <g id="Group_26930" data-name="Group 26930">
            <g id="Group_26859" data-name="Group 26859">
              <path id="Path_15183" data-name="Path 15183" d="M554.91,53.95a1.677,1.677,0,0,1,.76-.09,2.441,2.441,0,0,1,.26.01l-.08.08c.01-.29.04-.5.08-.5s.07.21.08.5v.08h-.09a2.261,2.261,0,0,0-.26.01A1.65,1.65,0,0,1,554.91,53.95Z" fill="#e1e1e1"/>
            </g>
            <g id="Group_26860" data-name="Group 26860">
              <path id="Path_15184" data-name="Path 15184" d="M552.88,53.95c0-.05.23-.09.51-.09s.51.04.51.09-.23.09-.51.09S552.88,54,552.88,53.95Z" fill="#e1e1e1"/>
            </g>
            <g id="Group_26861" data-name="Group 26861">
              <path id="Path_15185" data-name="Path 15185" d="M550.84,53.95c0-.05.23-.09.51-.09s.51.04.51.09-.23.09-.51.09S550.84,54,550.84,53.95Z" fill="#e1e1e1"/>
            </g>
            <g id="Group_26862" data-name="Group 26862">
              <path id="Path_15186" data-name="Path 15186" d="M548.81,53.95c0-.05.23-.09.51-.09s.51.04.51.09-.23.09-.51.09S548.81,54,548.81,53.95Z" fill="#e1e1e1"/>
            </g>
            <g id="Group_26863" data-name="Group 26863">
              <path id="Path_15187" data-name="Path 15187" d="M546.78,53.95c0-.05.23-.09.51-.09s.51.04.51.09-.23.09-.51.09S546.78,54,546.78,53.95Z" fill="#e1e1e1"/>
            </g>
            <g id="Group_26864" data-name="Group 26864">
              <path id="Path_15188" data-name="Path 15188" d="M544.74,53.95c0-.05.23-.09.51-.09s.51.04.51.09-.23.09-.51.09S544.74,54,544.74,53.95Z" fill="#e1e1e1"/>
            </g>
            <g id="Group_26865" data-name="Group 26865">
              <path id="Path_15189" data-name="Path 15189" d="M542.71,53.95c0-.05.23-.09.51-.09s.51.04.51.09-.23.09-.51.09S542.71,54,542.71,53.95Z" fill="#e1e1e1"/>
            </g>
            <g id="Group_26866" data-name="Group 26866">
              <path id="Path_15190" data-name="Path 15190" d="M540.67,53.95c0-.05.23-.09.51-.09s.51.04.51.09-.23.09-.51.09S540.67,54,540.67,53.95Z" fill="#e1e1e1"/>
            </g>
            <g id="Group_26867" data-name="Group 26867">
              <path id="Path_15191" data-name="Path 15191" d="M538.64,53.95c0-.05.23-.09.51-.09s.51.04.51.09-.23.09-.51.09S538.64,54,538.64,53.95Z" fill="#e1e1e1"/>
            </g>
            <g id="Group_26868" data-name="Group 26868">
              <path id="Path_15192" data-name="Path 15192" d="M536.61,53.95c0-.05.23-.09.51-.09s.51.04.51.09-.23.09-.51.09S536.61,54,536.61,53.95Z" fill="#e1e1e1"/>
            </g>
            <g id="Group_26869" data-name="Group 26869">
              <path id="Path_15193" data-name="Path 15193" d="M534.57,53.95c0-.05.23-.09.51-.09s.51.04.51.09-.23.09-.51.09S534.57,54,534.57,53.95Z" fill="#e1e1e1"/>
            </g>
            <g id="Group_26870" data-name="Group 26870">
              <path id="Path_15194" data-name="Path 15194" d="M532.54,53.95c0-.05.23-.09.51-.09s.51.04.51.09-.23.09-.51.09S532.54,54,532.54,53.95Z" fill="#e1e1e1"/>
            </g>
            <g id="Group_26871" data-name="Group 26871">
              <path id="Path_15195" data-name="Path 15195" d="M530.5,53.95c0-.05.23-.09.51-.09s.51.04.51.09-.23.09-.51.09S530.5,54,530.5,53.95Z" fill="#e1e1e1"/>
            </g>
            <g id="Group_26872" data-name="Group 26872">
              <path id="Path_15196" data-name="Path 15196" d="M528.47,53.95c0-.05.23-.09.51-.09s.51.04.51.09-.23.09-.51.09S528.47,54,528.47,53.95Z" fill="#e1e1e1"/>
            </g>
            <g id="Group_26873" data-name="Group 26873">
              <path id="Path_15197" data-name="Path 15197" d="M526.44,53.95c0-.05.23-.09.51-.09s.51.04.51.09-.23.09-.51.09S526.44,54,526.44,53.95Z" fill="#e1e1e1"/>
            </g>
            <g id="Group_26874" data-name="Group 26874">
              <path id="Path_15198" data-name="Path 15198" d="M524.4,53.95c0-.05.23-.09.51-.09s.51.04.51.09-.23.09-.51.09S524.4,54,524.4,53.95Z" fill="#e1e1e1"/>
            </g>
            <g id="Group_26875" data-name="Group 26875">
              <path id="Path_15199" data-name="Path 15199" d="M522.37,53.95c0-.05.23-.09.51-.09s.51.04.51.09-.23.09-.51.09S522.37,54,522.37,53.95Z" fill="#e1e1e1"/>
            </g>
            <g id="Group_26876" data-name="Group 26876">
              <path id="Path_15200" data-name="Path 15200" d="M520.33,53.95c0-.05.23-.09.51-.09s.51.04.51.09-.23.09-.51.09S520.33,54,520.33,53.95Z" fill="#e1e1e1"/>
            </g>
            <g id="Group_26877" data-name="Group 26877">
              <path id="Path_15201" data-name="Path 15201" d="M519.7,52.55c.05,0,.09.23.09.51s-.04.51-.09.51-.09-.23-.09-.51S519.65,52.55,519.7,52.55Z" fill="#e1e1e1"/>
            </g>
            <g id="Group_26878" data-name="Group 26878">
              <path id="Path_15202" data-name="Path 15202" d="M519.7,50.51c.05,0,.09.23.09.51s-.04.51-.09.51-.09-.23-.09-.51S519.65,50.51,519.7,50.51Z" fill="#e1e1e1"/>
            </g>
            <g id="Group_26879" data-name="Group 26879">
              <path id="Path_15203" data-name="Path 15203" d="M519.7,48.48c.05,0,.09.23.09.51s-.04.51-.09.51-.09-.23-.09-.51S519.65,48.48,519.7,48.48Z" fill="#e1e1e1"/>
            </g>
            <g id="Group_26880" data-name="Group 26880">
              <path id="Path_15204" data-name="Path 15204" d="M519.7,46.45c.05,0,.09.23.09.51s-.04.51-.09.51-.09-.23-.09-.51S519.65,46.45,519.7,46.45Z" fill="#e1e1e1"/>
            </g>
            <g id="Group_26881" data-name="Group 26881">
              <path id="Path_15205" data-name="Path 15205" d="M519.7,44.41c.05,0,.09.23.09.51s-.04.51-.09.51-.09-.23-.09-.51S519.65,44.41,519.7,44.41Z" fill="#e1e1e1"/>
            </g>
            <g id="Group_26882" data-name="Group 26882">
              <path id="Path_15206" data-name="Path 15206" d="M519.7,42.38c.05,0,.09.23.09.51s-.04.51-.09.51-.09-.23-.09-.51S519.65,42.38,519.7,42.38Z" fill="#e1e1e1"/>
            </g>
            <g id="Group_26883" data-name="Group 26883">
              <path id="Path_15207" data-name="Path 15207" d="M519.7,40.34c.05,0,.09.23.09.51s-.04.51-.09.51-.09-.23-.09-.51S519.65,40.34,519.7,40.34Z" fill="#e1e1e1"/>
            </g>
            <g id="Group_26884" data-name="Group 26884">
              <path id="Path_15208" data-name="Path 15208" d="M519.7,38.31c.05,0,.09.23.09.51s-.04.51-.09.51-.09-.23-.09-.51S519.65,38.31,519.7,38.31Z" fill="#e1e1e1"/>
            </g>
            <g id="Group_26885" data-name="Group 26885">
              <path id="Path_15209" data-name="Path 15209" d="M519.7,36.28c.05,0,.09.23.09.51s-.04.51-.09.51-.09-.23-.09-.51S519.65,36.28,519.7,36.28Z" fill="#e1e1e1"/>
            </g>
            <g id="Group_26886" data-name="Group 26886">
              <path id="Path_15210" data-name="Path 15210" d="M519.7,34.24c.05,0,.09.23.09.51s-.04.51-.09.51-.09-.23-.09-.51S519.65,34.24,519.7,34.24Z" fill="#e1e1e1"/>
            </g>
            <g id="Group_26887" data-name="Group 26887">
              <path id="Path_15211" data-name="Path 15211" d="M519.7,32.21c.05,0,.09.23.09.51s-.04.51-.09.51-.09-.23-.09-.51S519.65,32.21,519.7,32.21Z" fill="#e1e1e1"/>
            </g>
            <g id="Group_26888" data-name="Group 26888">
              <path id="Path_15212" data-name="Path 15212" d="M519.7,30.18c.05,0,.09.23.09.51s-.04.51-.09.51-.09-.23-.09-.51S519.65,30.18,519.7,30.18Z" fill="#e1e1e1"/>
            </g>
            <g id="Group_26889" data-name="Group 26889">
              <path id="Path_15213" data-name="Path 15213" d="M519.7,28.14c.05,0,.09.23.09.51s-.04.51-.09.51-.09-.23-.09-.51S519.65,28.14,519.7,28.14Z" fill="#e1e1e1"/>
            </g>
            <g id="Group_26890" data-name="Group 26890">
              <path id="Path_15214" data-name="Path 15214" d="M519.7,26.11c.05,0,.09.23.09.51s-.04.51-.09.51-.09-.23-.09-.51S519.65,26.11,519.7,26.11Z" fill="#e1e1e1"/>
            </g>
            <g id="Group_26891" data-name="Group 26891">
              <path id="Path_15215" data-name="Path 15215" d="M519.7,24.07c.05,0,.09.23.09.51s-.04.51-.09.51-.09-.23-.09-.51S519.65,24.07,519.7,24.07Z" fill="#e1e1e1"/>
            </g>
            <g id="Group_26892" data-name="Group 26892">
              <path id="Path_15216" data-name="Path 15216" d="M519.7,22.04c.05,0,.09.23.09.51s-.04.51-.09.51-.09-.23-.09-.51S519.65,22.04,519.7,22.04Z" fill="#e1e1e1"/>
            </g>
            <g id="Group_26893" data-name="Group 26893">
              <path id="Path_15217" data-name="Path 15217" d="M519.7,20.01c.05,0,.09.23.09.51s-.04.51-.09.51-.09-.23-.09-.51S519.65,20.01,519.7,20.01Z" fill="#e1e1e1"/>
            </g>
            <g id="Group_26894" data-name="Group 26894">
              <path id="Path_15218" data-name="Path 15218" d="M519.7,17.97c.05,0,.09.23.09.51s-.04.51-.09.51-.09-.23-.09-.51S519.65,17.97,519.7,17.97Z" fill="#e1e1e1"/>
            </g>
            <g id="Group_26895" data-name="Group 26895">
              <path id="Path_15219" data-name="Path 15219" d="M521.48,17.72c0,.05-.23.09-.51.09s-.51-.04-.51-.09.23-.09.51-.09S521.48,17.67,521.48,17.72Z" fill="#e1e1e1"/>
            </g>
            <g id="Group_26896" data-name="Group 26896">
              <path id="Path_15220" data-name="Path 15220" d="M523.52,17.72c0,.05-.23.09-.51.09s-.51-.04-.51-.09.23-.09.51-.09S523.52,17.67,523.52,17.72Z" fill="#e1e1e1"/>
            </g>
            <g id="Group_26897" data-name="Group 26897">
              <path id="Path_15221" data-name="Path 15221" d="M525.55,17.72c0,.05-.23.09-.51.09s-.51-.04-.51-.09.23-.09.51-.09S525.55,17.67,525.55,17.72Z" fill="#e1e1e1"/>
            </g>
            <g id="Group_26898" data-name="Group 26898">
              <path id="Path_15222" data-name="Path 15222" d="M527.58,17.72c0,.05-.23.09-.51.09s-.51-.04-.51-.09.23-.09.51-.09S527.58,17.67,527.58,17.72Z" fill="#e1e1e1"/>
            </g>
            <g id="Group_26899" data-name="Group 26899">
              <path id="Path_15223" data-name="Path 15223" d="M529.62,17.72c0,.05-.23.09-.51.09s-.51-.04-.51-.09.23-.09.51-.09S529.62,17.67,529.62,17.72Z" fill="#e1e1e1"/>
            </g>
            <g id="Group_26900" data-name="Group 26900">
              <path id="Path_15224" data-name="Path 15224" d="M531.65,17.72c0,.05-.23.09-.51.09s-.51-.04-.51-.09.23-.09.51-.09S531.65,17.67,531.65,17.72Z" fill="#e1e1e1"/>
            </g>
            <g id="Group_26901" data-name="Group 26901">
              <path id="Path_15225" data-name="Path 15225" d="M533.68,17.72c0,.05-.23.09-.51.09s-.51-.04-.51-.09.23-.09.51-.09S533.68,17.67,533.68,17.72Z" fill="#e1e1e1"/>
            </g>
            <g id="Group_26902" data-name="Group 26902">
              <path id="Path_15226" data-name="Path 15226" d="M535.72,17.72c0,.05-.23.09-.51.09s-.51-.04-.51-.09.23-.09.51-.09S535.72,17.67,535.72,17.72Z" fill="#e1e1e1"/>
            </g>
            <g id="Group_26903" data-name="Group 26903">
              <path id="Path_15227" data-name="Path 15227" d="M537.75,17.72c0,.05-.23.09-.51.09s-.51-.04-.51-.09.23-.09.51-.09S537.75,17.67,537.75,17.72Z" fill="#e1e1e1"/>
            </g>
            <g id="Group_26904" data-name="Group 26904">
              <path id="Path_15228" data-name="Path 15228" d="M539.79,17.72c0,.05-.23.09-.51.09s-.51-.04-.51-.09.23-.09.51-.09S539.79,17.67,539.79,17.72Z" fill="#e1e1e1"/>
            </g>
            <g id="Group_26905" data-name="Group 26905">
              <path id="Path_15229" data-name="Path 15229" d="M541.82,17.72c0,.05-.23.09-.51.09s-.51-.04-.51-.09.23-.09.51-.09S541.82,17.67,541.82,17.72Z" fill="#e1e1e1"/>
            </g>
            <g id="Group_26906" data-name="Group 26906">
              <path id="Path_15230" data-name="Path 15230" d="M543.85,17.72c0,.05-.23.09-.51.09s-.51-.04-.51-.09.23-.09.51-.09S543.85,17.67,543.85,17.72Z" fill="#e1e1e1"/>
            </g>
            <g id="Group_26907" data-name="Group 26907">
              <path id="Path_15231" data-name="Path 15231" d="M545.89,17.72c0,.05-.23.09-.51.09s-.51-.04-.51-.09.23-.09.51-.09S545.89,17.67,545.89,17.72Z" fill="#e1e1e1"/>
            </g>
            <g id="Group_26908" data-name="Group 26908">
              <path id="Path_15232" data-name="Path 15232" d="M547.92,17.72c0,.05-.23.09-.51.09s-.51-.04-.51-.09.23-.09.51-.09S547.92,17.67,547.92,17.72Z" fill="#e1e1e1"/>
            </g>
            <g id="Group_26909" data-name="Group 26909">
              <path id="Path_15233" data-name="Path 15233" d="M549.96,17.72c0,.05-.23.09-.51.09s-.51-.04-.51-.09.23-.09.51-.09S549.96,17.67,549.96,17.72Z" fill="#e1e1e1"/>
            </g>
            <g id="Group_26910" data-name="Group 26910">
              <path id="Path_15234" data-name="Path 15234" d="M551.99,17.72c0,.05-.23.09-.51.09s-.51-.04-.51-.09.23-.09.51-.09S551.99,17.67,551.99,17.72Z" fill="#e1e1e1"/>
            </g>
            <g id="Group_26911" data-name="Group 26911">
              <path id="Path_15235" data-name="Path 15235" d="M554.02,17.72c0,.05-.23.09-.51.09s-.51-.04-.51-.09.23-.09.51-.09S554.02,17.67,554.02,17.72Z" fill="#e1e1e1"/>
            </g>
            <g id="Group_26912" data-name="Group 26912">
              <path id="Path_15236" data-name="Path 15236" d="M555.93,17.85c-.02,0-.04-.05-.06-.13l.06.06a1.943,1.943,0,0,1-.38.03c-.28,0-.51-.04-.51-.09s.23-.09.51-.09a1.943,1.943,0,0,1,.38.03l.07.01-.01.05C555.97,17.8,555.95,17.85,555.93,17.85Z" fill="#e1e1e1"/>
            </g>
            <g id="Group_26913" data-name="Group 26913">
              <path id="Path_15237" data-name="Path 15237" d="M555.93,19.88c-.05,0-.09-.23-.09-.51s.04-.51.09-.51.09.23.09.51S555.98,19.88,555.93,19.88Z" fill="#e1e1e1"/>
            </g>
            <g id="Group_26914" data-name="Group 26914">
              <path id="Path_15238" data-name="Path 15238" d="M555.93,21.92c-.05,0-.09-.23-.09-.51s.04-.51.09-.51.09.23.09.51S555.98,21.92,555.93,21.92Z" fill="#e1e1e1"/>
            </g>
            <g id="Group_26915" data-name="Group 26915">
              <path id="Path_15239" data-name="Path 15239" d="M555.93,23.95c-.05,0-.09-.23-.09-.51s.04-.51.09-.51.09.23.09.51S555.98,23.95,555.93,23.95Z" fill="#e1e1e1"/>
            </g>
            <g id="Group_26916" data-name="Group 26916">
              <path id="Path_15240" data-name="Path 15240" d="M555.93,25.99c-.05,0-.09-.23-.09-.51s.04-.51.09-.51.09.23.09.51S555.98,25.99,555.93,25.99Z" fill="#e1e1e1"/>
            </g>
            <g id="Group_26917" data-name="Group 26917">
              <path id="Path_15241" data-name="Path 15241" d="M555.93,28.02c-.05,0-.09-.23-.09-.51s.04-.51.09-.51.09.23.09.51S555.98,28.02,555.93,28.02Z" fill="#e1e1e1"/>
            </g>
            <g id="Group_26918" data-name="Group 26918">
              <path id="Path_15242" data-name="Path 15242" d="M555.93,30.05c-.05,0-.09-.23-.09-.51s.04-.51.09-.51.09.23.09.51S555.98,30.05,555.93,30.05Z" fill="#e1e1e1"/>
            </g>
            <g id="Group_26919" data-name="Group 26919">
              <path id="Path_15243" data-name="Path 15243" d="M555.93,32.09c-.05,0-.09-.23-.09-.51s.04-.51.09-.51.09.23.09.51S555.98,32.09,555.93,32.09Z" fill="#e1e1e1"/>
            </g>
            <g id="Group_26920" data-name="Group 26920">
              <path id="Path_15244" data-name="Path 15244" d="M555.93,34.12c-.05,0-.09-.23-.09-.51s.04-.51.09-.51.09.23.09.51S555.98,34.12,555.93,34.12Z" fill="#e1e1e1"/>
            </g>
            <g id="Group_26921" data-name="Group 26921">
              <path id="Path_15245" data-name="Path 15245" d="M555.93,36.15c-.05,0-.09-.23-.09-.51s.04-.51.09-.51.09.23.09.51S555.98,36.15,555.93,36.15Z" fill="#e1e1e1"/>
            </g>
            <g id="Group_26922" data-name="Group 26922">
              <path id="Path_15246" data-name="Path 15246" d="M555.93,38.19c-.05,0-.09-.23-.09-.51s.04-.51.09-.51.09.23.09.51S555.98,38.19,555.93,38.19Z" fill="#e1e1e1"/>
            </g>
            <g id="Group_26923" data-name="Group 26923">
              <path id="Path_15247" data-name="Path 15247" d="M555.93,40.22c-.05,0-.09-.23-.09-.51s.04-.51.09-.51.09.23.09.51S555.98,40.22,555.93,40.22Z" fill="#e1e1e1"/>
            </g>
            <g id="Group_26924" data-name="Group 26924">
              <path id="Path_15248" data-name="Path 15248" d="M555.93,42.26c-.05,0-.09-.23-.09-.51s.04-.51.09-.51.09.23.09.51S555.98,42.26,555.93,42.26Z" fill="#e1e1e1"/>
            </g>
            <g id="Group_26925" data-name="Group 26925">
              <path id="Path_15249" data-name="Path 15249" d="M555.93,44.29c-.05,0-.09-.23-.09-.51s.04-.51.09-.51.09.23.09.51S555.98,44.29,555.93,44.29Z" fill="#e1e1e1"/>
            </g>
            <g id="Group_26926" data-name="Group 26926">
              <path id="Path_15250" data-name="Path 15250" d="M555.93,46.32c-.05,0-.09-.23-.09-.51s.04-.51.09-.51.09.23.09.51S555.98,46.32,555.93,46.32Z" fill="#e1e1e1"/>
            </g>
            <g id="Group_26927" data-name="Group 26927">
              <path id="Path_15251" data-name="Path 15251" d="M555.93,48.36c-.05,0-.09-.23-.09-.51s.04-.51.09-.51.09.23.09.51S555.98,48.36,555.93,48.36Z" fill="#e1e1e1"/>
            </g>
            <g id="Group_26928" data-name="Group 26928">
              <path id="Path_15252" data-name="Path 15252" d="M555.93,50.39c-.05,0-.09-.23-.09-.51s.04-.51.09-.51.09.23.09.51S555.98,50.39,555.93,50.39Z" fill="#e1e1e1"/>
            </g>
            <g id="Group_26929" data-name="Group 26929">
              <path id="Path_15253" data-name="Path 15253" d="M555.93,52.43c-.05,0-.09-.23-.09-.51s.04-.51.09-.51.09.23.09.51S555.98,52.43,555.93,52.43Z" fill="#e1e1e1"/>
            </g>
          </g>
          <rect id="Rectangle_7944" data-name="Rectangle 7944" width="2.68" height="2.68" transform="translate(554.59 52.24)" fill="#e1e1e1"/>
          <rect id="Rectangle_7945" data-name="Rectangle 7945" width="2.68" height="2.68" transform="translate(518.36 52.61)" fill="#e1e1e1"/>
          <rect id="Rectangle_7946" data-name="Rectangle 7946" width="2.68" height="2.68" transform="translate(554.59 16.12)" fill="#e1e1e1"/>
          <rect id="Rectangle_7947" data-name="Rectangle 7947" width="2.68" height="2.68" transform="translate(518.36 16.38)" fill="#e1e1e1"/>
        </g>
        <path id="Path_15254" data-name="Path 15254" d="M413.48,78.53l2.02,10.73,1.66-2.99,3.57,5.34,1.79-1.2-3.57-5.35,3.27-.5Z" fill="#222837"/>
        <path id="Path_15255" data-name="Path 15255" d="M587.68,134.09c2.85,0,9.69,8.09,10.89,20.38.55,5.63,3.37,28.68,4.73,39.76a11.066,11.066,0,0,1-4.5,10.3,70.3,70.3,0,0,1-41.73,13.53l-11.89-9.97,38.58-16.26.02-.88,1.68-1.84-4.81-29.52C580.64,159.6,576.15,134.1,587.68,134.09Z" fill="#b1cde8"/>
        <g id="APPLOVER_ilustration_EXPORT_APPLOVER_ilu-35_00000057137924987913473930000010431667651889959064_" transform="translate(0 94.268)">
          <path id="Path_10353_00000181072425303208996820000002031756905631383696_" d="M582.6,120.09l-65.07-3.36-1.88-2.69,62.9-3.36,22.08-2.93-.21,1.14a5.95,5.95,0,0,1-2.28,3.7Z" fill="#e5e5e5"/>
          <path id="Path_10354_00000122719504231870485060000007214579492294375822_" d="M580.78,118.82l-44-3.22-13.13-.97-8-.59,18.42-7.44,66.55,1.17-3.59,2.72Z" fill="#f6f8fa"/>
          <path id="Path_10355_00000137846048884061058730000013772672984909589129_" d="M579.55,120.04,518.5,116.9a2.859,2.859,0,0,1-2.86-2.86h0l-9.61-36.83a2.855,2.855,0,0,1,2.86-2.84h0l61.65,2.73a2.859,2.859,0,0,1,2.86,2.86h0l9.01,37.22a2.872,2.872,0,0,1-2.86,2.86Z" fill="#e5e5e5"/>
          <circle id="Ellipse_952_00000170243793473628662250000009847662574422873477_" cx="6.84" cy="6.84" r="6.84" transform="translate(534.06 90.79)" fill="#fff"/>
          <path id="Path_10356_00000160886514916705205510000008438102675142273178_" d="M545.29,98.87a9.358,9.358,0,0,0-8.66-9.95v.25a9.107,9.107,0,0,1,8.43,9.72Z" fill="#1d1d1b"/>
        </g>
        <path id="Path_15256" data-name="Path 15256" d="M535.57,213.2h0l-.6-8.9s9.95-.82,11.59,3.38c1.03,2.64.7,3.31.7,3.31l3.48.89.72,1.32-5.25-1.38-1.04-4.11-9.8-2.93-.41-.48" fill="#d8d8d8"/>
        <path id="Path_15257" data-name="Path 15257" d="M535.57,213.42h0l-.6-9.13s10.52.95,11.04,3.73a20.344,20.344,0,0,0,1,3.88l3.61.8s-1.31-1.03-1.05-1.81.09-.73.61-.85a4.93,4.93,0,0,1,2.49.66c.85.45,5.77,3.36,5.77,3.36v3.61s-11.46.83-14.04.35l-5.01-1.16A5.288,5.288,0,0,1,535.57,213.42Z" fill="#ffdac7"/>
        <path id="Path_15258" data-name="Path 15258" d="M288,197.9c6.38-1.53,7.91-8.88,6.93-14.54a11.423,11.423,0,0,0-3.97-7.46,6.123,6.123,0,0,0-7.08-.34,5.126,5.126,0,0,0-1.66,6.01,5.224,5.224,0,0,0,5.93,3.06c6.12-1.11,8.5-9.65,7.8-14.88-.91-6.84-6.65-11.73-11.69-15.81-.26-.21-.64.17-.36.38a38.757,38.757,0,0,1,9.63,10.07,15.82,15.82,0,0,1-.13,15.34,7.585,7.585,0,0,1-6.55,4.46,4.614,4.614,0,0,1-4.45-4.77,4.291,4.291,0,0,1,.2-1.18,4.842,4.842,0,0,1,6.24-2.82c.15.06.29.12.43.19a8.917,8.917,0,0,1,4.76,6.38c1.45,5.65.49,13.77-6.25,15.37-.34,0-.19.6.15.51Z" fill="#1d1d1b"/>
        <path id="Path_15259" data-name="Path 15259" d="M295.77,240.91h-13.9l-2.82-28.41h19.78Z" fill="#222837"/>
        <path id="Path_15260" data-name="Path 15260" d="M297.39,231.81H280.32l-1.27-10.24h19.78Z" fill="#e8e2dd"/>
        <path id="Path_15261" data-name="Path 15261" d="M299.05,211.28H279.18l-.62,2.43H299.9Z" fill="#e8e2dd"/>
        <circle id="Ellipse_1115" data-name="Ellipse 1115" cx="2.49" cy="2.49" r="2.49" transform="translate(286.21 224.2)" fill="#fff"/>
        <g id="Group_26957" data-name="Group 26957">
          <g id="Group_26932" data-name="Group 26932">
            <path id="Path_15262" data-name="Path 15262" d="M336.73,105.93l-9.06,8.48a1.529,1.529,0,0,1-2.15-.08L291.94,78.47a1.518,1.518,0,0,1,.06-2.15l9.06-8.48a1.529,1.529,0,0,1,2.15.08l33.58,35.86A1.518,1.518,0,0,1,336.73,105.93Z" fill="#f5f5f5"/>
          </g>
          <g id="Group_26933" data-name="Group 26933">
            <rect id="Rectangle_7948" data-name="Rectangle 7948" width="8.67" height="12.64" transform="matrix(-0.684, -0.73, 0.73, -0.684, 298.697, 84.017)" fill="#74e4c8"/>
          </g>
          <g id="Group_26934" data-name="Group 26934">
            <rect id="Rectangle_7949" data-name="Rectangle 7949" width="8.67" height="12.64" transform="matrix(-0.684, -0.73, 0.73, -0.684, 317.995, 104.622)" fill="#c8fcea"/>
          </g>
          <g id="Group_26935" data-name="Group 26935">
            <rect id="Rectangle_7950" data-name="Rectangle 7950" width="8.67" height="12.64" transform="matrix(-0.684, -0.73, 0.73, -0.684, 311.56, 97.751)" fill="#a6f4dc"/>
          </g>
          <g id="Group_26936" data-name="Group 26936">
            <rect id="Rectangle_7951" data-name="Rectangle 7951" width="8.67" height="12.64" transform="matrix(-0.684, -0.73, 0.73, -0.684, 305.111, 90.861)" fill="#8cedd1"/>
          </g>
          <g id="Group_26956" data-name="Group 26956">
            <g id="Group_26937" data-name="Group 26937">
              <path id="Path_15263" data-name="Path 15263" d="M335.45,106.86l-12.16,2.5a1.49,1.49,0,0,1-1.78-1.14l-9.54-46.47A1.5,1.5,0,0,1,313.15,60l12.16-2.5a1.49,1.49,0,0,1,1.78,1.14l9.54,46.47A1.493,1.493,0,0,1,335.45,106.86Z" fill="#f5f5f5"/>
            </g>
            <g id="Group_26938" data-name="Group 26938">
              <rect id="Rectangle_7952" data-name="Rectangle 7952" width="8.67" height="12.64" transform="translate(315.196 70.258) rotate(-101.234)" fill="#ff4f5b"/>
            </g>
            <g id="Group_26939" data-name="Group 26939">
              <rect id="Rectangle_7953" data-name="Rectangle 7953" width="8.67" height="12.64" transform="translate(320.701 97.958) rotate(-101.234)" fill="#ff4f5b"/>
            </g>
            <g id="Group_26940" data-name="Group 26940">
              <rect id="Rectangle_7954" data-name="Rectangle 7954" width="8.67" height="12.64" transform="translate(318.869 88.718) rotate(-101.234)" fill="#ff4f5b"/>
            </g>
            <g id="Group_26941" data-name="Group 26941">
              <rect id="Rectangle_7955" data-name="Rectangle 7955" width="8.67" height="12.64" transform="translate(317.03 79.46) rotate(-101.234)" fill="#ff4f5b"/>
            </g>
            <g id="Group_26942" data-name="Group 26942">
              <rect id="Rectangle_7956" data-name="Rectangle 7956" width="8.67" height="12.64" transform="translate(315.196 70.258) rotate(-101.234)" fill="#222837"/>
            </g>
            <g id="Group_26943" data-name="Group 26943">
              <rect id="Rectangle_7957" data-name="Rectangle 7957" width="8.67" height="12.64" transform="translate(320.701 97.958) rotate(-101.234)" fill="#6b7484"/>
            </g>
            <g id="Group_26944" data-name="Group 26944">
              <rect id="Rectangle_7958" data-name="Rectangle 7958" width="8.67" height="12.64" transform="translate(318.869 88.718) rotate(-101.234)" fill="#515968"/>
            </g>
            <g id="Group_26945" data-name="Group 26945">
              <rect id="Rectangle_7959" data-name="Rectangle 7959" width="8.67" height="12.64" transform="translate(317.03 79.46) rotate(-101.234)" fill="#3a4151"/>
            </g>
            <g id="Group_26946" data-name="Group 26946">
              <path id="Path_15264" data-name="Path 15264" d="M335.84,105.27l-11.11,5.54a1.481,1.481,0,0,1-2-.63L301.85,68.33a1.49,1.49,0,0,1,.7-1.98l11.11-5.54a1.481,1.481,0,0,1,2,.63l20.88,41.85A1.482,1.482,0,0,1,335.84,105.27Z" fill="#f5f5f5"/>
            </g>
            <g id="Group_26947" data-name="Group 26947">
              <rect id="Rectangle_7960" data-name="Rectangle 7960" width="8.67" height="12.64" transform="translate(307.227 76.57) rotate(-116.173)" fill="#ff4f5b"/>
            </g>
            <g id="Group_26948" data-name="Group 26948">
              <rect id="Rectangle_7961" data-name="Rectangle 7961" width="8.67" height="12.64" transform="translate(319.675 101.909) rotate(-116.173)" fill="#ff4f5b"/>
            </g>
            <g id="Group_26949" data-name="Group 26949">
              <rect id="Rectangle_7962" data-name="Rectangle 7962" width="8.67" height="12.64" transform="translate(315.523 93.453) rotate(-116.173)" fill="#ff4f5b"/>
            </g>
            <g id="Group_26950" data-name="Group 26950">
              <rect id="Rectangle_7963" data-name="Rectangle 7963" width="8.67" height="12.64" transform="translate(311.361 84.992) rotate(-116.173)" fill="#ff4f5b"/>
            </g>
            <g id="Group_26951" data-name="Group 26951">
              <rect id="Rectangle_7964" data-name="Rectangle 7964" width="8.67" height="12.64" transform="translate(307.227 76.57) rotate(-116.173)" fill="#fc636b"/>
            </g>
            <g id="Group_26952" data-name="Group 26952">
              <rect id="Rectangle_7965" data-name="Rectangle 7965" width="8.67" height="12.64" transform="translate(319.675 101.909) rotate(-116.173)" fill="#f9c7d0"/>
            </g>
            <g id="Group_26953" data-name="Group 26953">
              <rect id="Rectangle_7966" data-name="Rectangle 7966" width="8.67" height="12.64" transform="translate(315.523 93.453) rotate(-116.173)" fill="#f7a9b4"/>
            </g>
            <g id="Group_26954" data-name="Group 26954">
              <rect id="Rectangle_7967" data-name="Rectangle 7967" width="8.67" height="12.64" transform="translate(311.361 84.992) rotate(-116.173)" fill="#f97d89"/>
            </g>
            <g id="Group_26955" data-name="Group 26955">
              <path id="Path_15265" data-name="Path 15265" d="M326.6,104.76a1.889,1.889,0,1,0,2.67.09A1.893,1.893,0,0,0,326.6,104.76Z" fill="#1a2e35"/>
            </g>
            <circle id="Ellipse_1116" data-name="Ellipse 1116" cx="7.38" cy="7.38" r="7.38" transform="translate(324.81 104.76)" fill="none" stroke="#1a2e35" stroke-miterlimit="10" stroke-width="0.58"/>
          </g>
        </g>
        <path id="Path_15266" data-name="Path 15266" d="M620.8,102.25a10.135,10.135,0,1,0-16.63,7.79,5.882,5.882,0,0,1,2.15,4.51v2.59h8.84v-2.72a5.686,5.686,0,0,1,2-4.39A10.107,10.107,0,0,0,620.8,102.25Z" fill="#efefef"/>
        <rect id="Rectangle_7968" data-name="Rectangle 7968" width="9.14" height="2.32" transform="translate(606.16 118.21)" fill="#e5e5e5"/>
        <rect id="Rectangle_7969" data-name="Rectangle 7969" width="6.86" height="2.85" transform="translate(607.31 121.6)" fill="#e5e5e5"/>
        <path id="Path_15267" data-name="Path 15267" d="M608.98,116.35a95.808,95.808,0,0,0-1.64-13.82,3.893,3.893,0,0,0-.41-1.29c-.13-.21-.37-.56-.66-.5-.21.05-.24.29-.25.46a4.448,4.448,0,0,0,.08,1.5c.25,1.22,1.71,4.04,3.17,2.5a5.236,5.236,0,0,0,.8-5.51c0-.06-.1-.03-.12,0a5.353,5.353,0,0,0-.26,2.54,3.908,3.908,0,0,0,.96,2.27c.59.52,1.35-.04,1.77-.55a4.719,4.719,0,0,0,1-2.19,6.974,6.974,0,0,0,.1-1.21,3.5,3.5,0,0,0-.04-.65.251.251,0,0,0-.1-.21c-.45-.34-.71,1.37-.76,1.59a7.861,7.861,0,0,0-.23,3.44,1,1,0,0,0,.72.84,1.105,1.105,0,0,0,1-.35,7.96,7.96,0,0,0,1.67-2.74,5.508,5.508,0,0,0,.39-1.12c.04-.18.03-.34-.2-.26-.55.19-.96.94-1.19,1.43a11.943,11.943,0,0,0-.68,1.93,22.151,22.151,0,0,0-.46,2.43c-.14.9-.26,1.81-.36,2.72-.2,1.82-.28,3.65-.33,5.47,0,.5,0,1-.04,1.5a.068.068,0,0,0,.08.04c.02-.01.04-.02.04-.04a71.029,71.029,0,0,1,.67-9.33,21.382,21.382,0,0,1,.89-3.86,6.03,6.03,0,0,1,.69-1.45,1.957,1.957,0,0,1,.69-.71c.2-.09.09-.08.1,0a.566.566,0,0,1-.03.18,9.333,9.333,0,0,1-.97,2.25,7.769,7.769,0,0,1-.78,1.18,1.361,1.361,0,0,1-.89.6c-1.04.11-1-1.38-.98-2.06a13.054,13.054,0,0,1,.16-1.4c.07-.38.15-.75.24-1.12.05-.17.1-.35.15-.5a.578.578,0,0,1,.07-.21c.03-.07.04-.13.07-.2.18-.06.26,0,.24.13a2.076,2.076,0,0,1,0,.61,4.017,4.017,0,0,1-.03.6,5.2,5.2,0,0,1-.27,1.23,4.7,4.7,0,0,1-.59,1.16,2.158,2.158,0,0,1-1.15.95c-.95.18-1.38-1.46-1.5-2.14a5.179,5.179,0,0,1,.22-2.73h-.12a5.2,5.2,0,0,1-.33,4.74,2.535,2.535,0,0,1-.8.89c-.56.34-1.04-.03-1.43-.44a4.757,4.757,0,0,1-1.15-2.14,4.6,4.6,0,0,1-.13-1.43c0-.16,0-.39.14-.47.24-.15.5.26.58.43a3.993,3.993,0,0,1,.37,1.17c.1.5.19.97.28,1.46q.54,2.88.87,5.79.375,3.285.5,6.59a.065.065,0,0,0,.13,0h.04Z" fill="#1d1d1b"/>
      </g>
    </g>
  </g>
</svg>
